<svg xmlns="http://www.w3.org/2000/svg" width="1280" height="720" viewBox="0 0 1280 720" role="img" aria-labelledby="title desc">
  <title id="title">Range Tint Viewer overview</title>
  <desc id="desc">A dark Nuke-style Viewer with an outside green frame rail, range toggle, and timeline range strip.</desc>
  <defs>
    <linearGradient id="image" x1="0" y1="0" x2="1" y2="1">
      <stop offset="0" stop-color="#223342"/>
      <stop offset="0.52" stop-color="#865a3c"/>
      <stop offset="1" stop-color="#172026"/>
    </linearGradient>
    <filter id="shadow" x="-20%" y="-20%" width="140%" height="140%">
      <feDropShadow dx="0" dy="8" stdDeviation="14" flood-color="#000" flood-opacity=".38"/>
    </filter>
  </defs>
  <rect width="1280" height="720" rx="18" fill="#181b1f"/>
  <rect x="24" y="22" width="1232" height="52" rx="8" fill="#2b3036"/>
  <text x="48" y="55" fill="#e5e9ec" font-family="Segoe UI,Arial,sans-serif" font-size="19" font-weight="600">Viewer1</text>
  <text x="1120" y="55" fill="#adb6bd" font-family="Segoe UI,Arial,sans-serif" font-size="17">50%   1:1</text>
  <rect x="24" y="84" width="1232" height="500" fill="#060708"/>
  <rect x="214" y="128" width="852" height="408" rx="2" fill="#35c878" filter="url(#shadow)"/>
  <rect x="220" y="134" width="840" height="396" fill="url(#image)"/>
  <circle cx="458" cy="302" r="74" fill="#11191d" opacity=".72"/>
  <rect x="682" y="224" width="122" height="234" rx="10" fill="#161312" opacity=".82"/>
  <rect x="318" y="404" width="520" height="74" rx="10" fill="#17191a" opacity=".58"/>
  <text x="640" y="326" text-anchor="middle" fill="#fff" font-family="Segoe UI,Arial,sans-serif" font-size="27" font-weight="700">FRAME 1042</text>
  <text x="640" y="360" text-anchor="middle" fill="#b9f5d3" font-family="Segoe UI,Arial,sans-serif" font-size="18" letter-spacing="2">INSIDE DELIVERY RANGE</text>
  <rect x="42" y="98" width="126" height="36" rx="6" fill="#276b43" stroke="#55d88b"/>
  <text x="105" y="122" text-anchor="middle" fill="#fff" font-family="Segoe UI,Arial,sans-serif" font-size="14" font-weight="700">RANGE ON</text>
  <rect x="24" y="596" width="1232" height="94" rx="8" fill="#252a2f"/>
  <line x1="54" y1="632" x2="1226" y2="632" stroke="#687179" stroke-width="2"/>
  <g fill="#aab2b8" font-family="Segoe UI,Arial,sans-serif" font-size="14">
    <text x="54" y="660">1001</text><text x="420" y="660">1040</text><text x="788" y="660">1080</text><text x="1186" y="660">1120</text>
  </g>
  <rect x="54" y="678" width="250" height="6" rx="3" fill="#d64f5c"/>
  <rect x="304" y="678" width="578" height="6" rx="3" fill="#35c878"/>
  <rect x="882" y="678" width="344" height="6" rx="3" fill="#d64f5c"/>
  <path d="M635 616l8 13h-16z" fill="#f0a33b"/>
  <line x1="635" y1="629" x2="635" y2="680" stroke="#f0a33b" stroke-width="2"/>
</svg>

